<svg width="52" height="52" viewBox="0 0 52 52" fill="none" xmlns="http://www.w3.org/2000/svg">
<path d="M29.0169 1.04857L29.0087 1.11502L29.0169 1.04857C27.5934 0.872357 24.4812 0.847577 23.2059 1.00285C14.684 2.04069 7.43052 7.07675 3.5947 14.6208C2.35687 17.0552 1.53868 19.5888 1.10461 22.3305C0.967763 23.1949 0.9 24.604 0.9 26.0082C0.9 27.4124 0.967763 28.8215 1.10461 29.6859C2.69576 39.7359 9.9576 47.8033 19.6864 50.3261C22.1238 50.9582 23.127 51.0777 25.9807 51.0777C28.8238 51.0777 29.812 50.9609 32.2746 50.3321C42.3132 47.7688 49.8708 39.0365 50.9916 28.7061C51.1361 27.3743 51.1361 24.642 50.9916 23.3103C49.7343 11.7229 40.6147 2.48436 29.0169 1.04857ZM22.9127 2.41891L22.8992 2.31982L22.9127 2.41891C24.3416 2.22472 27.4001 2.21798 28.8943 2.40586C34.1291 3.06417 38.731 5.27939 42.5255 8.96777C47.2041 13.5156 49.7353 19.465 49.7353 25.9116C49.7353 28.7541 49.3827 30.9542 48.5038 33.5962C46.4985 39.6245 41.9544 44.7335 36.1384 47.4973C29.8806 50.4712 22.6272 50.5317 16.198 47.6628C12.8125 46.152 9.30024 43.3553 7.07598 40.399C1.68928 33.2398 0.699288 23.8305 4.4916 15.8505C7.95578 8.56075 14.8829 3.50979 22.9127 2.41891ZM14.321 21.3856L14.2957 21.2933L14.321 21.3856C17.2 20.5967 19.126 20.3766 23.1648 20.3781C26.0182 20.3791 26.7608 20.4139 28.2345 20.6133C32.0444 21.129 35.0544 22.0007 37.8629 23.3996C38.6514 23.7924 39.1021 24.0104 39.4287 24.1293C39.7625 24.2508 39.97 24.27 40.2694 24.27C41.7837 24.27 42.9499 23.1103 42.955 21.5989C42.9576 20.8153 42.6453 20.1159 42.0574 19.5863L41.9905 19.6606L42.0574 19.5863C41.9212 19.4636 41.6486 19.2888 41.3018 19.0899C40.9521 18.8894 40.5186 18.6599 40.0539 18.4275C39.125 17.9631 38.0665 17.4849 37.2967 17.2026C32.8453 15.5704 27.1698 14.724 21.7276 14.8785C20.0644 14.9257 18.1153 15.1229 16.3673 15.3941C14.6216 15.6649 13.0672 16.0109 12.198 16.3587C11.8851 16.4839 11.5409 16.764 11.2553 17.0855C10.9695 17.4073 10.7299 17.7846 10.6374 18.1151C10.2491 19.5017 11.014 20.9383 12.3937 21.4251C12.7016 21.5337 12.957 21.588 13.2524 21.5814C13.545 21.5749 13.8714 21.5087 14.321 21.3856ZM12.9 20.138L12.8731 20.2279L12.9 20.138C12.3354 19.9688 11.9761 19.5331 11.9271 18.9651C11.9 18.6505 11.955 18.3873 12.0839 18.1724C12.2129 17.9574 12.4211 17.7823 12.7151 17.6531L12.6749 17.5615L12.7151 17.6531C13.4231 17.3418 14.7675 17.0262 16.3769 16.7697C17.983 16.5138 19.8428 16.3182 21.5753 16.2437C23.1129 16.1776 23.5055 16.1815 25.3377 16.2813C31.2037 16.6008 36.3565 17.899 40.2896 20.043C40.7455 20.2915 41.0448 20.4933 41.2447 20.6973C41.4412 20.8979 41.5441 21.1031 41.6009 21.3656C41.6463 21.5756 41.6033 21.8426 41.4929 22.0931C41.3827 22.3432 41.212 22.5615 41.0199 22.6803C40.7333 22.8574 40.4823 22.9233 40.1325 22.8636C39.7723 22.8022 39.306 22.6075 38.5947 22.246C35.5737 20.7107 32.4973 19.8184 28.2674 19.2477C26.7944 19.0491 26.0007 19.0111 23.2713 19.0067C19.3015 19.0003 17.5033 19.1897 14.5517 19.9273C13.4233 20.2093 13.2059 20.2296 12.9 20.138ZM13.1645 23.906L13.2113 23.9859L13.1645 23.906C11.4997 24.8818 11.6903 27.366 13.4801 28.1137L13.5187 28.0214L13.4801 28.1137C14.0633 28.3573 14.6164 28.3258 15.7697 28.0196C18.3721 27.3286 21.5468 27.0296 24.3079 27.2158C28.7004 27.5121 31.9706 28.3896 35.41 30.1925C35.7969 30.3953 36.1952 30.5872 36.5256 30.7331C36.6907 30.806 36.8397 30.8678 36.9622 30.9138C37.0823 30.9589 37.184 30.9915 37.2515 31.0023C37.9731 31.1177 38.6892 30.8093 39.1951 30.2998C39.7011 29.7903 40.0089 29.0676 39.8994 28.3375C39.8567 28.0522 39.7845 27.7998 39.6561 27.5628C39.5277 27.3256 39.3457 27.1086 39.089 26.8905C38.5792 26.4573 37.7653 26.0124 36.4677 25.3934C31.6211 23.081 25.8144 22.0413 20.1291 22.4662C18.8561 22.5613 17.3406 22.7902 16.0335 23.0596C15.3798 23.1943 14.777 23.3394 14.2819 23.4834C13.7894 23.6265 13.3953 23.7708 13.1645 23.906ZM13.8756 26.7774L13.8756 26.7774C13.3626 26.5122 13.2259 25.7694 13.6194 25.3019L13.6194 25.3019C13.7862 25.1036 14.0514 24.9606 14.6067 24.7996C16.2174 24.3326 18.37 23.979 20.782 23.7867C21.7698 23.708 23.6321 23.7255 24.9575 23.8266C29.3165 24.1591 33.3334 25.2495 36.7377 27.0223C37.3911 27.3625 37.8233 27.6214 38.1022 27.8494C38.379 28.0757 38.4952 28.2639 38.5324 28.462C38.6157 28.9063 38.3643 29.362 37.927 29.5448C37.8098 29.5938 37.716 29.6241 37.624 29.6355C37.5334 29.6469 37.4398 29.6405 37.3234 29.6093C37.0841 29.545 36.7611 29.3798 36.194 29.0612C30.5668 25.9005 22.3545 24.9419 15.6028 26.6534C14.9891 26.8089 14.6489 26.8863 14.4129 26.9016C14.1888 26.916 14.063 26.8743 13.8756 26.7774ZM14.3324 32.2607L14.2539 32.2282L14.3324 32.2607C14.3671 32.1771 14.404 32.1152 14.4567 32.0627C14.5097 32.0098 14.584 31.9611 14.7007 31.9123C14.9385 31.813 15.3281 31.7228 16.0118 31.5884C19.7479 30.8547 23.3372 30.6928 26.5522 31.1114C28.6752 31.3879 30.46 31.8535 32.3805 32.6317C33.044 32.9006 33.7853 33.2481 34.4004 33.5683C34.7079 33.7283 34.983 33.8811 35.2005 34.0133C35.4209 34.1473 35.574 34.2554 35.6447 34.326C35.8313 34.5127 35.8565 34.783 35.7605 35.0139C35.6644 35.2449 35.4546 35.4182 35.1901 35.4182C35.1648 35.4182 35.114 35.4088 35.0366 35.3849C34.962 35.3618 34.8711 35.3279 34.7696 35.2853C34.5667 35.2002 34.3265 35.0823 34.0987 34.9525C29.379 32.2628 23.0753 31.5545 16.241 32.9325C15.8783 33.0056 15.5221 33.0652 15.2409 33.1024C15.1002 33.121 14.9793 33.1339 14.8863 33.1401C14.8398 33.1432 14.8014 33.1445 14.7715 33.1442C14.7397 33.1439 14.7241 33.1417 14.7197 33.1406C14.5773 33.1049 14.4442 32.974 14.3641 32.7953C14.2845 32.6177 14.268 32.4161 14.3324 32.2607ZM20.6068 29.5718C19.4607 29.6629 17.9583 29.8663 16.6691 30.0852C16.0244 30.1946 15.4319 30.308 14.9632 30.4135C14.7289 30.4662 14.5246 30.5171 14.3597 30.5647C14.1968 30.6118 14.0663 30.6574 13.9834 30.7005C13.3202 31.0457 12.9401 31.7022 12.9401 32.4872C12.9401 33.4286 13.5077 34.1835 14.4181 34.4562C14.7932 34.5686 15.1107 34.5368 16.3468 34.3011C18.7013 33.852 19.9156 33.7082 21.9464 33.6372C26.5563 33.4761 29.8803 34.2435 33.9027 36.3973C34.2322 36.5737 34.4446 36.6778 34.6443 36.7306C34.8476 36.7844 35.032 36.7836 35.3014 36.7643C37.1469 36.6328 37.8343 34.376 36.4102 33.1778C36.2544 33.0466 35.958 32.8659 35.5854 32.6633C35.2103 32.4593 34.7506 32.2292 34.2622 31.9994C33.2864 31.5401 32.1913 31.0794 31.4248 30.8286C29.7019 30.2649 28.4058 29.9692 26.6493 29.7389C25.0999 29.5358 22.1035 29.4529 20.6068 29.5718Z" fill="black" stroke="black" stroke-width="0.2"/>
</svg>
